<?xml version="1.0" encoding="UTF-8"?>
<svg version="1.1" xmlns="http://www.w3.org/2000/svg" width="400" height="357">
<path d="M0 0 C132 0 264 0 400 0 C400 117.81 400 235.62 400 357 C268 357 136 357 0 357 C0 239.19 0 121.38 0 0 Z " fill="#014BB1" transform="translate(0,0)"/>
<path d="M0 0 C6.27 0 12.54 0 19 0 C19.46672119 1.21953369 19.93344238 2.43906738 20.41430664 3.69555664 C22.62997589 9.48468907 24.84614648 15.27362951 27.0625 21.0625 C27.46982361 22.12640961 27.87714722 23.19031921 28.29681396 24.28646851 C33.42840116 37.6887139 38.56892647 51.08744315 43.72674561 64.47961426 C46.48825887 71.6516303 49.24444209 78.82569425 52 86 C52.53418549 87.39025391 52.53418549 87.39025391 53.0791626 88.80859375 C55.33858382 94.68989507 57.59404903 100.57269048 59.84466553 106.45736694 C60.56912548 108.35008686 61.29473912 110.24236562 62.02154541 112.13418579 C63.02662263 114.75102708 64.02751196 117.36943217 65.02734375 119.98828125 C65.32965408 120.77271606 65.63196442 121.55715088 65.94343567 122.36535645 C68 127.77170814 68 127.77170814 68 130 C60.41 130 52.82 130 45 130 C41.66666667 122 38.33333333 114 35 106 C17.84 106 0.68 106 -17 106 C-19.97 113.92 -22.94 121.84 -26 130 C-33.92 130 -41.84 130 -50 130 C-45.60801819 117.35164054 -40.91804752 104.851652 -36.0625 92.375 C-34.93293673 89.46408551 -33.80427606 86.55282206 -32.67565918 83.64154053 C-31.9097562 81.66604493 -31.14356124 79.69066251 -30.3770752 77.71539307 C-26.91774386 68.79814928 -23.48747421 59.86987684 -20.06130981 50.93984985 C-15.28988069 38.50638982 -10.49263288 26.08364558 -5.625 13.6875 C-5.16625488 12.51832031 -4.70750977 11.34914063 -4.23486328 10.14453125 C-1.12984768 2.25969537 -1.12984768 2.25969537 0 0 Z " fill="#FBFCFD" transform="translate(196,51)"/>
<path d="M0 0 C1.12093552 0.00007553 2.24187103 0.00015106 3.39677429 0.00022888 C4.60622208 0.00539017 5.81566986 0.01055145 7.06176758 0.01586914 C8.30050125 0.01728409 9.53923492 0.01869904 10.81550598 0.02015686 C14.1051142 0.02480937 17.39467343 0.03379149 20.68426514 0.04486084 C24.04251506 0.0550991 27.40077216 0.05965965 30.7590332 0.06469727 C37.34564342 0.07573394 43.93221161 0.09300249 50.51879883 0.11352539 C50.51879883 7.37352539 50.51879883 14.63352539 50.51879883 22.11352539 C48.11219971 22.12754395 48.11219971 22.12754395 45.65698242 22.1418457 C39.69674046 22.18175816 33.73701395 22.24752188 27.77709961 22.32104492 C25.19904204 22.34924699 22.62089812 22.37046526 20.04272461 22.38452148 C16.33377908 22.40596048 12.6258709 22.45261935 8.91723633 22.50415039 C7.76701996 22.50537903 6.61680359 22.50660767 5.43173218 22.50787354 C-0.82251538 22.62199299 -4.73674436 22.88511827 -9.48120117 27.11352539 C-12.7853919 30.82411391 -14.20738427 35.04627141 -13.93432617 40.05883789 C-12.87061042 44.88223864 -10.26532341 48.82685119 -6.28076172 51.70043945 C-2.9777792 53.36762902 -0.79217067 53.48220264 2.89379883 53.48461914 C4.12743164 53.50202148 5.36106445 53.51942383 6.63208008 53.53735352 C9.19196537 53.54635814 11.75186679 53.55166034 14.31176758 53.55297852 C27.80267712 53.75569166 39.30753012 56.70011275 49.44848633 65.85571289 C56.48570547 73.13455329 59.77424465 81.60464825 60.08129883 91.67602539 C59.65476464 102.96188934 55.62484804 113.09095732 47.51879883 121.08618164 C37.63712032 129.3973791 27.45209648 130.70386544 14.88208008 130.50415039 C13.50775485 130.49666977 12.13341879 130.49098548 10.75907898 130.48699951 C7.17995615 130.47188584 3.60150532 130.43273249 0.02264404 130.38818359 C-3.6445609 130.34691822 -7.31187677 130.3289225 -10.97924805 130.30883789 C-18.14690442 130.2662197 -25.3138722 130.19599233 -32.48120117 130.11352539 C-32.48120117 123.18352539 -32.48120117 116.25352539 -32.48120117 109.11352539 C-29.89284424 109.09165161 -29.89284424 109.09165161 -27.25219727 109.06933594 C-21.53639111 109.01758763 -15.82084644 108.95227581 -10.10529137 108.87781048 C-6.64158858 108.83317599 -3.17800153 108.79390521 0.28588867 108.76708984 C4.27263275 108.73598776 8.25888558 108.6812009 12.24536133 108.62524414 C14.10192856 108.61565926 14.10192856 108.61565926 15.9960022 108.60588074 C24.19761719 108.54156825 24.19761719 108.54156825 31.51879883 105.11352539 C34.93937071 101.50292174 37.36596996 98.11349951 37.62426758 93.04321289 C37.37707877 87.64167961 35.87281585 84.51812855 32.28442383 80.52368164 C28.06818795 77.15628971 23.93183362 76.87347251 18.67114258 76.87524414 C17.3293358 76.85980608 15.98753877 76.84350114 14.64575195 76.82641602 C12.56162712 76.81010145 10.47822521 76.80095011 8.39404297 76.80810547 C-4.08536798 76.82449242 -14.55626938 74.76408084 -23.80541992 65.85961914 C-33.30024185 55.96641308 -35.99176717 46.5275916 -35.76635742 33.10961914 C-35.53521831 28.13722452 -34.10370208 24.32404588 -31.48120117 20.11352539 C-30.88307617 19.08227539 -30.28495117 18.05102539 -29.66870117 16.98852539 C-22.45744643 7.51087631 -12.36093927 -0.02777739 0 0 Z " fill="#FAFCFD" transform="translate(80.481201171875,50.886474609375)"/>
<path d="M0 0 C31.68 0 63.36 0 96 0 C96 7.26 96 14.52 96 22 C83.79 22 71.58 22 59 22 C59 57.64 59 93.28 59 130 C51.74 130 44.48 130 37 130 C37 94.36 37 58.72 37 22 C24.79 22 12.58 22 0 22 C0 14.74 0 7.48 0 0 Z " fill="#F6F9FC" transform="translate(256,51)"/>
<path d="M0 0 C1.33856027 -0.31168139 2.67155108 -0.64770415 4 -1 C5.58211573 -1.06548492 7.16670081 -1.08578381 8.75 -1.0625 C9.54921875 -1.05347656 10.3484375 -1.04445313 11.171875 -1.03515625 C11.77515625 -1.02355469 12.3784375 -1.01195312 13 -1 C14.17176518 1.12232979 15.33754785 3.24757791 16.5 5.375 C16.83386719 5.97828125 17.16773438 6.5815625 17.51171875 7.203125 C20 11.7734375 20 11.7734375 20 14 C20.66 14 21.32 14 22 14 C22.226875 13.195625 22.45375 12.39125 22.6875 11.5625 C24.33631588 7.08714261 26.60544412 3.11278682 29 -1 C30.98 -1 32.96 -1 35 -1 C33.29885121 5.18504098 30.17778561 10.59072638 27.125 16.1875 C26.59519531 17.18458984 26.06539063 18.18167969 25.51953125 19.20898438 C24.74029297 20.64274414 24.74029297 20.64274414 23.9453125 22.10546875 C23.47625488 22.97324951 23.00719727 23.84103027 22.52392578 24.73510742 C20.89510582 27.15589608 19.49647684 28.50518111 17 30 C12.17365442 30.44688385 8.49616307 29.75460022 4 28 C4 28.66 4 29.32 4 30 C1 29 1 29 -1 28 C-2.0828125 28.4640625 -2.0828125 28.4640625 -3.1875 28.9375 C-7.79693276 30.67884126 -11.50743025 30.53732511 -16.125 28.875 C-20.41090933 26.07984174 -23.34925239 22.95224283 -25 18 C-25.54225459 13.33305478 -25.4698456 9.92228952 -23.3125 5.6875 C-16.26951958 -2.49758535 -10.04175086 -3.34725029 0 0 Z " fill="#074DB2" transform="translate(316,270)"/>
<path d="M0 0 C2.8463528 2.8463528 3.80615386 6.33703703 5.1875 10.04296875 C5.49067139 10.8447908 5.79384277 11.64661285 6.10620117 12.47273254 C6.74753447 14.172338 7.38621765 15.87294545 8.02246094 17.57446289 C8.99048726 20.16207171 9.96716578 22.74628036 10.9453125 25.33007812 C11.56822736 26.98417963 12.19063918 28.63847069 12.8125 30.29296875 C13.10213623 31.05989548 13.39177246 31.8268222 13.69018555 32.61698914 C14.10071167 33.71766472 14.10071167 33.71766472 14.51953125 34.84057617 C14.87688354 35.79416267 14.87688354 35.79416267 15.24145508 36.76701355 C16.27461651 39.80840954 17.11757144 42.91150005 18 46 C6.12 46 -5.76 46 -18 46 C-14.31062892 35.23102495 -10.34317181 24.59609499 -6.1875 14 C-5.93930511 13.3646936 -5.69111023 12.72938721 -5.43539429 12.0748291 C-4.72437314 10.25699569 -4.00876523 8.44095836 -3.29296875 6.625 C-2.8755542 5.56539063 -2.45813965 4.50578125 -2.02807617 3.4140625 C-1 1 -1 1 0 0 Z " fill="#044CB2" transform="translate(205,89)"/>
<path d="M0 0 C4.34999469 2.27407532 6.94290863 4.87477157 8.92578125 9.31640625 C9.8239483 14.45913696 10.14723996 19.1464405 7.52734375 23.80078125 C3.84379594 28.20817034 0.62156125 30.88970539 -5.171875 31.55859375 C-10.66852121 31.87059036 -13.78163452 31.01002524 -18.07421875 27.31640625 C-22.37649465 22.54901944 -23.43704378 18.8789333 -23.35546875 12.59765625 C-22.76602486 7.81661139 -19.92601078 5.06679447 -16.44921875 2.00390625 C-11.51145046 -1.50450806 -5.7975938 -1.91069475 0 0 Z " fill="#F0F5F9" transform="translate(102.07421875,218.68359375)"/>
<path d="M0 0 C7.26 0 14.52 0 22 0 C22 8.25 22 16.5 22 25 C23.32 25 24.64 25 26 25 C26 28.63 26 32.26 26 36 C24.02 36 22.04 36 20 36 C20 34.02 20 32.04 20 30 C13.4 30 6.8 30 0 30 C0 32.31 0 34.62 0 37 C-1.98 37 -3.96 37 -6 37 C-6 33.04 -6 29.08 -6 25 C-5.01 24.67 -4.02 24.34 -3 24 C-1.09587749 21.10739859 -0.7174261 18.65307862 -0.5859375 15.234375 C-0.55032715 14.43225586 -0.5147168 13.63013672 -0.47802734 12.80371094 C-0.44402832 11.79598633 -0.4100293 10.78826172 -0.375 9.75 C-0.189375 4.92375 -0.189375 4.92375 0 0 Z " fill="#F7F9FB" transform="translate(44,269)"/>
<path d="M0 0 C0.72340576 0.00499512 1.44681152 0.00999023 2.19213867 0.01513672 C3.10455322 0.03334473 4.01696777 0.05155273 4.95703125 0.0703125 C7.86515625 0.1115625 10.77328125 0.1528125 13.76953125 0.1953125 C13.76953125 10.0953125 13.76953125 19.9953125 13.76953125 30.1953125 C11.78953125 30.1953125 9.80953125 30.1953125 7.76953125 30.1953125 C7.76953125 27.5553125 7.76953125 24.9153125 7.76953125 22.1953125 C4.44379222 22.14375977 4.44379222 22.14375977 0.76953125 23.1953125 C-0.68727253 24.92682785 -1.78462608 26.74418613 -2.96484375 28.671875 C-4.23046875 30.1953125 -4.23046875 30.1953125 -7.54296875 30.6328125 C-8.42984375 30.4884375 -9.31671875 30.3440625 -10.23046875 30.1953125 C-8.89558747 26.60140136 -7.27024152 23.44040554 -5.23046875 20.1953125 C-6.22046875 19.8653125 -7.21046875 19.5353125 -8.23046875 19.1953125 C-10.44898954 15.22532793 -10.63066195 11.67747637 -10.23046875 7.1953125 C-7.94570011 2.2993797 -5.5076555 -0.07812277 0 0 Z " fill="#F5F8FB" transform="translate(117.23046875,268.8046875)"/>
<path d="M0 0 C7.59 0 15.18 0 23 0 C23 1.65 23 3.3 23 5 C17.39 5 11.78 5 6 5 C6 6.98 6 8.96 6 11 C7.08667969 10.94779297 7.08667969 10.94779297 8.1953125 10.89453125 C13.88083266 10.73533669 18.14854007 10.64129697 23 14 C25.17240606 17.25860909 25.23564158 17.82050803 24.8125 21.5 C24.73644531 22.2734375 24.66039062 23.046875 24.58203125 23.84375 C23.89032726 26.40630437 23.0747904 27.3758204 21 29 C18.23434618 29.92188461 16.61716298 30.11785222 13.76953125 30.09765625 C13.04612549 30.09515869 12.32271973 30.09266113 11.57739258 30.09008789 C10.66497803 30.08098389 9.75256348 30.07187988 8.8125 30.0625 C5.904375 30.041875 2.99625 30.02125 0 30 C0 20.1 0 10.2 0 0 Z " fill="#F5F8FA" transform="translate(153,269)"/>
<path d="M0 0 C2.31 0 4.62 0 7 0 C7.33 5.94 7.66 11.88 8 18 C8.85464844 16.85660156 9.70929688 15.71320313 10.58984375 14.53515625 C11.70568718 13.0442394 12.82157488 11.5533557 13.9375 10.0625 C14.50146484 9.30775391 15.06542969 8.55300781 15.64648438 7.77539062 C16.18466797 7.05673828 16.72285156 6.33808594 17.27734375 5.59765625 C17.77484131 4.93258057 18.27233887 4.26750488 18.78491211 3.58227539 C20 2 20 2 21 1 C22.98 1 24.96 1 27 1 C27 10.9 27 20.8 27 31 C25.02 31 23.04 31 21 31 C20.67 25.06 20.34 19.12 20 13 C18.04068458 15.60343287 16.08251118 18.2077111 14.125 20.8125 C13.56941406 21.55048828 13.01382812 22.28847656 12.44140625 23.04882812 C11.90644531 23.76103516 11.37148438 24.47324219 10.8203125 25.20703125 C10.32805176 25.8616333 9.83579102 26.51623535 9.32861328 27.19067383 C8.17467505 28.76212481 7.08145651 30.37781523 6 32 C4.02 32 2.04 32 0 32 C0 21.44 0 10.88 0 0 Z " fill="#E6EDF6" transform="translate(249,218)"/>
<path d="M0 0 C1.98 0 3.96 0 6 0 C7 1 7 1 7.09765625 3.72265625 C7.08605469 4.82480469 7.07445312 5.92695313 7.0625 7.0625 C7.05347656 8.16722656 7.04445313 9.27195313 7.03515625 10.41015625 C7.02355469 11.26480469 7.01195312 12.11945313 7 13 C10.39211595 12.03909344 11.75530912 11.35895182 13.7734375 8.3984375 C14.30195313 7.40070313 14.83046875 6.40296875 15.375 5.375 C17.15234375 2.37890625 17.15234375 2.37890625 19 0 C22.9375 -0.6875 22.9375 -0.6875 26 0 C24.61219205 3.89006773 22.7847773 6.96558708 20.375 10.3125 C19.74335938 11.19550781 19.11171875 12.07851562 18.4609375 12.98828125 C17.97882813 13.65214844 17.49671875 14.31601563 17 15 C19.59202338 19.78527393 22.44387672 24.03696349 25.828125 28.30078125 C27 30 27 30 27 32 C23.79296875 32.37109375 23.79296875 32.37109375 20 32 C17.48828125 29.41015625 17.48828125 29.41015625 15.3125 26.0625 C12.28160269 21.03593315 12.28160269 21.03593315 7 19 C7 23.29 7 27.58 7 32 C4.69 32 2.38 32 0 32 C0 21.44 0 10.88 0 0 Z " fill="#E5EDF6" transform="translate(289,218)"/>
<path d="M0 0 C7.26 0 14.52 0 22 0 C22 1.98 22 3.96 22 6 C16.72 6 11.44 6 6 6 C6 7.98 6 9.96 6 12 C10.62 12 15.24 12 20 12 C20 13.98 20 15.96 20 18 C15.71 18 11.42 18 7 18 C7 20.31 7 22.62 7 25 C11.95 25 16.9 25 22 25 C22 26.98 22 28.96 22 31 C14.74 31 7.48 31 0 31 C0 20.77 0 10.54 0 0 Z " fill="#E8EFF7" transform="translate(263,269)"/>
<path d="M0 0 C1.98 0 3.96 0 6 0 C6 3.96 6 7.92 6 12 C10.62 12 15.24 12 20 12 C20 8.04 20 4.08 20 0 C21.98 0 23.96 0 26 0 C26 9.9 26 19.8 26 30 C23.69 30 21.38 30 19 30 C19 26.04 19 22.08 19 18 C14.71 18 10.42 18 6 18 C6 21.96 6 25.92 6 30 C4.02 30 2.04 30 0 30 C0 20.1 0 10.2 0 0 Z " fill="#F3F7FA" transform="translate(229,269)"/>
<path d="M0 0 C1.4540625 0.0309375 1.4540625 0.0309375 2.9375 0.0625 C4.65362092 3.84960461 6.36239841 7.63990964 8.06445312 11.43334961 C8.64447617 12.72331696 9.22649489 14.01238891 9.81054688 15.30053711 C10.64980159 17.15246398 11.48182208 19.00749439 12.3125 20.86328125 C12.81523437 21.97872314 13.31796875 23.09416504 13.8359375 24.2434082 C14.9375 27.0625 14.9375 27.0625 14.9375 30.0625 C12.9575 30.0625 10.9775 30.0625 8.9375 30.0625 C8.710625 29.093125 8.48375 28.12375 8.25 27.125 C6.2476582 23.76868959 6.2476582 23.76868959 2.84375 23.44140625 C-0.46581244 23.20757847 -3.74506258 23.07196487 -7.0625 23.0625 C-7.7225 25.3725 -8.3825 27.6825 -9.0625 30.0625 C-11.0425 30.0625 -13.0225 30.0625 -15.0625 30.0625 C-14.49338328 25.86410433 -13.51701706 22.35440181 -11.8125 18.48046875 C-11.3690625 17.46662109 -10.925625 16.45277344 -10.46875 15.40820312 C-9.77265625 13.84489258 -9.77265625 13.84489258 -9.0625 12.25 C-8.5984375 11.18845703 -8.134375 10.12691406 -7.65625 9.03320312 C-3.71338061 0.07578328 -3.71338061 0.07578328 0 0 Z " fill="#F2F6FA" transform="translate(336.0625,218.9375)"/>
<path d="M0 0 C7.26 0 14.52 0 22 0 C22 9.9 22 19.8 22 30 C20.02 30 18.04 30 16 30 C16 21.75 16 13.5 16 5 C12.7 5 9.4 5 6 5 C6.03480469 5.99 6.06960937 6.98 6.10546875 8 C6.50881357 24.25726553 6.50881357 24.25726553 1.125 30 C-1.43402503 31.20424707 -3.2032841 31.30234767 -6 31 C-7 30 -7 30 -7.0625 26.9375 C-7.041875 25.968125 -7.02125 24.99875 -7 24 C-5.35 24 -3.7 24 -2 24 C-0.79487018 19.10859073 -0.66563171 14.19658999 -0.4375 9.1875 C-0.293125 6.155625 -0.14875 3.12375 0 0 Z " fill="#F1F5FA" transform="translate(80,269)"/>
<path d="M0 0 C7.26 0 14.52 0 22 0 C22 9.9 22 19.8 22 30 C20.02 30 18.04 30 16 30 C16 21.75 16 13.5 16 5 C12.7 5 9.4 5 6 5 C6.03480469 5.90621094 6.06960937 6.81242188 6.10546875 7.74609375 C6.46786248 24.05381166 6.46786248 24.05381166 1.1875 30.0625 C-1.64349343 31.2757829 -3.95396725 31.20768405 -7 31 C-7 28.69 -7 26.38 -7 24 C-5.35 24 -3.7 24 -2 24 C-1.01358378 18.87726701 -0.69057915 13.82187387 -0.4375 8.625 C-0.293125 5.77875 -0.14875 2.9325 0 0 Z " fill="#F2F6FA" transform="translate(45,219)"/>
<path d="M0 0 C3.31217963 1.34940652 5.4792773 2.4792773 8 5 C8.08718609 7.70276876 8.09146497 10.30686475 8 13 C8 14.32 8 15.64 8 17 C8.33 17.33 8.66 17.66 9 18 C9.59213885 25.22409393 9.59213885 25.22409393 7.1875 28.375 C2.1540868 32.11410695 -0.85395998 32.68056661 -7 32 C-10.5 30.75 -10.5 30.75 -13 29 C-13.9375 26.9375 -13.9375 26.9375 -14 25 C-13.67 24.34 -13.34 23.68 -13 23 C-12.154375 23.33 -11.30875 23.66 -10.4375 24 C-6.25733112 25.21604913 -2.02248275 26.01124138 2 24 C2 22.68 2 21.36 2 20 C-0.29629994 18.85185003 -2.07698086 18.69230191 -4.625 18.4375 C-5.44226563 18.35371094 -6.25953125 18.26992188 -7.1015625 18.18359375 C-8.04128906 18.09271484 -8.04128906 18.09271484 -9 18 C-9 16.35 -9 14.7 -9 13 C-4.545 12.505 -4.545 12.505 0 12 C0.33 10.68 0.66 9.36 1 8 C-2.96769422 6.01615289 -7.85529486 6.67369435 -12 8 C-12.66 6.35 -13.32 4.7 -14 3 C-9.2271023 0.13626138 -5.44865508 -0.82489599 0 0 Z " fill="#F0F5F9" transform="translate(213,268)"/>
<path d="M0 0 C1.65234375 1.01171875 1.65234375 1.01171875 4.02734375 3.19921875 C4.02734375 6.19921875 4.02734375 6.19921875 2.02734375 9.19921875 C0.02734375 8.19921875 -1.97265625 7.19921875 -3.97265625 6.19921875 C-8.30592799 5.70865968 -10.29265969 5.72177436 -13.91015625 8.26171875 C-16.47739656 11.91809131 -16.5307329 13.81433075 -15.97265625 18.19921875 C-14.7849777 21.57953464 -14.074404 22.13138692 -10.97265625 24.19921875 C-6.04461845 24.66450279 -6.04461845 24.66450279 -1.66015625 22.69921875 C-1.10328125 22.20421875 -0.54640625 21.70921875 0.02734375 21.19921875 C2.02734375 21.19921875 2.02734375 21.19921875 3.65234375 22.69921875 C4.10609375 23.19421875 4.55984375 23.68921875 5.02734375 24.19921875 C4.00040925 27.50822991 2.98812268 28.22118255 -0.09765625 29.94921875 C-4.92223321 31.74719774 -9.37938763 32.32854541 -14.15234375 30.25 C-18.35302561 27.81114258 -20.82677449 25.65903325 -22.97265625 21.19921875 C-23.79049685 15.72484427 -23.67460912 10.77159318 -21.41015625 5.69921875 C-15.5213628 -0.34056941 -8.26260764 -3.35412785 0 0 Z " fill="#EEF3F9" transform="translate(196.97265625,218.80078125)"/>
<path d="M0 0 C2.71835171 1.77008949 3.64758872 2.73425729 4.6875 5.75 C3.3675 6.74 2.0475 7.73 0.6875 8.75 C-0.3334375 7.9765625 -0.3334375 7.9765625 -1.375 7.1875 C-5.23885729 5.29667622 -7.21331728 5.55751048 -11.3125 6.75 C-14.20607127 9.34679473 -15.17339908 10.91539447 -15.8125 14.75 C-15.17339908 18.58460553 -14.20607127 20.15320527 -11.3125 22.75 C-7.02974179 24.0189654 -5.0161057 24.04423511 -0.875 22.3125 C-0.029375 21.796875 0.81625 21.28125 1.6875 20.75 C2.6775 21.74 3.6675 22.73 4.6875 23.75 C3.64758872 26.76574271 2.71835171 27.72991051 0 29.5 C-4.91285299 31.35390679 -8.49317562 31.40495678 -13.4375 29.625 C-17.72340933 26.82984174 -20.66175239 23.70224283 -22.3125 18.75 C-22.85475459 14.08305478 -22.7823456 10.67228952 -20.625 6.4375 C-14.7779933 -0.35766995 -8.8385179 -3.33528977 0 0 Z " fill="#EFF5F9" transform="translate(313.3125,269.25)"/>
<path d="M0 0 C2.31 0 4.62 0 7 0 C8.17176518 2.12232979 9.33754785 4.24757791 10.5 6.375 C10.83386719 6.97828125 11.16773438 7.5815625 11.51171875 8.203125 C14 12.7734375 14 12.7734375 14 15 C14.66 15 15.32 15 16 15 C16.226875 14.195625 16.45375 13.39125 16.6875 12.5625 C18.33631588 8.08714261 20.60544412 4.11278682 23 0 C24.98 0 26.96 0 29 0 C27.29885121 6.18504098 24.17778561 11.59072638 21.125 17.1875 C20.59519531 18.18458984 20.06539063 19.18167969 19.51953125 20.20898438 C18.74029297 21.64274414 18.74029297 21.64274414 17.9453125 23.10546875 C17.47625488 23.97324951 17.00719727 24.84103027 16.52392578 25.73510742 C14.88953842 28.16417048 13.51839022 29.51889387 11 31 C7.25 31.1875 7.25 31.1875 4 31 C2.875 27.25 2.875 27.25 4 25 C7.0625 24.375 7.0625 24.375 10 24 C9.49826231 18.28019038 7.17532923 14.10553015 4.4375 9.1875 C3.60129565 7.66101466 2.76657501 6.13371527 1.93359375 4.60546875 C1.3775647 3.60229614 1.3775647 3.60229614 0.81030273 2.57885742 C0 1 0 1 0 0 Z " fill="#EFF5F9" transform="translate(322,269)"/>
<path d="M0 0 C8.25 0 16.5 0 25 0 C25 1.98 25 3.96 25 6 C22.03 6 19.06 6 16 6 C16 14.25 16 22.5 16 31 C13.69 31 11.38 31 9 31 C9 22.75 9 14.5 9 6 C6.03 6 3.06 6 0 6 C0 4.02 0 2.04 0 0 Z " fill="#E2EAF5" transform="translate(212,219)"/>
<path d="M0 0 C3.5542299 0.64622362 5.59136218 1.42940796 8.4375 3.625 C10.92136059 7.35079089 10.8179212 9.21211402 10.4375 13.625 C9.16751681 16.48246217 8.1536997 18.10637263 5.625 19.9375 C2.61510008 20.88346855 0.58551964 21.06572275 -2.5625 20.625 C-5.48733867 18.79952064 -7.99679205 16.75641589 -9.5625 13.625 C-10.0676259 10.52208379 -10.02499605 8.44923404 -8.46875 5.67578125 C-5.81251488 2.19300488 -4.41709579 0.77492909 0 0 Z " fill="#074EB3" transform="translate(94.5625,223.375)"/>
<path d="M0 0 C0.61875 0.350625 1.2375 0.70125 1.875 1.0625 C2.57625 1.371875 3.2775 1.68125 4 2 C4.66 1.67 5.32 1.34 6 1 C5.835 1.639375 5.67 2.27875 5.5 2.9375 C4.61696613 8.34608243 4.4868965 13.70413774 6 19 C4.02 19.33 2.04 19.66 0 20 C-0.33 21.98 -0.66 23.96 -1 26 C-1.33 26 -1.66 26 -2 26 C-2 24.35 -2 22.7 -2 21 C-6.95 21 -11.9 21 -17 21 C-17 18.69 -17 16.38 -17 14 C-12.71 14 -8.42 14 -4 14 C-4 12.02 -4 10.04 -4 8 C-8.62 8 -13.24 8 -18 8 C-18 6.02 -18 4.04 -18 2 C-17.67 2 -17.34 2 -17 2 C-17 3.65 -17 5.3 -17 7 C-16.34 6.01 -15.68 5.02 -15 4 C-11.7421875 3.70703125 -11.7421875 3.70703125 -7.875 3.8125 C-5.95300781 3.85310547 -5.95300781 3.85310547 -3.9921875 3.89453125 C-3.00476563 3.92933594 -2.01734375 3.96414063 -1 4 C-0.67 2.68 -0.34 1.36 0 0 Z " fill="#1659B7" transform="translate(287,273)"/>
<path d="M0 0 C6.6 0 13.2 0 20 0 C20 1.65 20 3.3 20 5 C15.38 5 10.76 5 6 5 C6 13.25 6 21.5 6 30 C4.02 30 2.04 30 0 30 C0 20.1 0 10.2 0 0 Z " fill="#FDFDFD" transform="translate(123,219)"/>
<path d="M0 0 C0.90492187 0.02320313 1.80984375 0.04640625 2.7421875 0.0703125 C5.1553125 0.1321875 5.1553125 0.1321875 7.6171875 0.1953125 C7.6171875 3.8253125 7.6171875 7.4553125 7.6171875 11.1953125 C6.2971875 11.1953125 4.9771875 11.1953125 3.6171875 11.1953125 C3.9471875 12.8453125 4.2771875 14.4953125 4.6171875 16.1953125 C4.00617188 16.28683594 3.39515625 16.37835938 2.765625 16.47265625 C0.06878474 17.37977525 -0.3731431 18.32727579 -1.7578125 20.7578125 C-3.01171875 22.671875 -3.01171875 22.671875 -4.3828125 24.1953125 C-7.6953125 24.6328125 -7.6953125 24.6328125 -10.3828125 24.1953125 C-9.04793122 20.60140136 -7.42258527 17.44040554 -5.3828125 14.1953125 C-6.3728125 13.8653125 -7.3628125 13.5353125 -8.3828125 13.1953125 C-7.0628125 12.5353125 -5.7428125 11.8753125 -4.3828125 11.1953125 C-4.40601562 10.56882812 -4.42921875 9.94234375 -4.453125 9.296875 C-4.48019531 8.07097656 -4.48019531 8.07097656 -4.5078125 6.8203125 C-4.53101562 6.00820313 -4.55421875 5.19609375 -4.578125 4.359375 C-4.28496522 1.11116468 -3.20109799 0.26238508 0 0 Z " fill="#EEF3F8" transform="translate(117.3828125,274.8046875)"/>
<path d="M0 0 C2.31 0 4.62 0 7 0 C7 10.56 7 21.12 7 32 C4.69 32 2.38 32 0 32 C0 21.44 0 10.88 0 0 Z " fill="#DCE6F4" transform="translate(155,218)"/>
<path d="M0 0 C1.98 0 3.96 0 6 0 C7.88319268 1.88319268 7.13054285 5.11930137 7.1328125 7.625 C7.13376923 8.28709473 7.13472595 8.94918945 7.13571167 9.63134766 C7.13639326 11.03352961 7.13454042 12.4357147 7.13037109 13.83789062 C7.12502246 15.99095713 7.1303167 18.14381502 7.13671875 20.296875 C7.13605796 21.65625046 7.13477679 23.0156258 7.1328125 24.375 C7.13168457 25.62023437 7.13055664 26.86546875 7.12939453 28.1484375 C7 31 7 31 6 32 C4.02 32 2.04 32 0 32 C0 21.44 0 10.88 0 0 Z " fill="#D9E4F2" transform="translate(185,268)"/>
<path d="M0 0 C3.3 0 6.6 0 10 0 C10 6.6 10 13.2 10 20 C6.04 20 2.08 20 -2 20 C-1.34 13.4 -0.68 6.8 0 0 Z " fill="#1A5BB9" transform="translate(50,274)"/>
<path d="M0 0 C1.98 0 3.96 0 6 0 C6 9.9 6 19.8 6 30 C4.02 30 2.04 30 0 30 C-0.33 24.06 -0.66 18.12 -1 12 C-1.66 12 -2.32 12 -3 12 C-4.13084944 8.50464719 -4.08940511 7.21132116 -2.625 3.75 C-1 1 -1 1 0 0 Z " fill="#FBFCFC" transform="translate(270,219)"/>
<path d="M0 0 C0.33 0 0.66 0 1 0 C1.33 3.96 1.66 7.92 2 12 C3.32 12 4.64 12 6 12 C6.28875 12.804375 6.5775 13.60875 6.875 14.4375 C7.73262568 17.1326468 7.73262568 17.1326468 10 18 C8.66511872 21.59391114 7.03977277 24.75490696 5 28 C8.465 27.505 8.465 27.505 12 27 C12 27.66 12 28.32 12 29 C9.36 29 6.72 29 4 29 C4 28.01 4 27.02 4 26 C3.01 26 2.02 26 1 26 C1 26.99 1 27.98 1 29 C-1.31 29 -3.62 29 -6 29 C-6 28.67 -6 28.34 -6 28 C-4.02 28 -2.04 28 0 28 C0 18.76 0 9.52 0 0 Z " fill="#1258B6" transform="translate(102,271)"/>
<path d="M0 0 C0.90492187 0.02320313 1.80984375 0.04640625 2.7421875 0.0703125 C5.1553125 0.1321875 5.1553125 0.1321875 7.6171875 0.1953125 C7.6171875 3.4953125 7.6171875 6.7953125 7.6171875 10.1953125 C6.0084375 10.2571875 4.3996875 10.3190625 2.7421875 10.3828125 C1.38480469 10.43501953 1.38480469 10.43501953 0 10.48828125 C-1.17949219 10.34326172 -1.17949219 10.34326172 -2.3828125 10.1953125 C-4.53197035 6.97157573 -4.76568053 5.92827576 -4.3828125 2.1953125 C-2.3828125 0.1953125 -2.3828125 0.1953125 0 0 Z " fill="#0249B0" transform="translate(117.3828125,274.8046875)"/>
<path d="M0 0 C2.36253009 2.36253009 3.037848 4.31227271 4.1875 7.4375 C4.55230469 8.40558594 4.91710937 9.37367187 5.29296875 10.37109375 C6 13 6 13 5 16 C3.68 15.34 2.36 14.68 1 14 C1 13.34 1 12.68 1 12 C0.34 12 -0.32 12 -1 12 C-1 12.99 -1 13.98 -1 15 C-2.98 15.99 -4.96 16.98 -7 18 C-5.06375702 11.79522136 -2.74390859 5.89174281 0 0 Z " fill="#1556B6" transform="translate(205,89)"/>
<path d="M0 0 C1.81242052 -0.02687279 3.62495233 -0.04633715 5.4375 -0.0625 C6.44683594 -0.07410156 7.45617187 -0.08570313 8.49609375 -0.09765625 C11 0 11 0 12 1 C12.1875 3.4375 12.1875 3.4375 12 6 C10 8 10 8 7.6171875 8.1953125 C6.71226562 8.17210937 5.80734375 8.14890625 4.875 8.125 C3.50988281 8.09792969 3.50988281 8.09792969 2.1171875 8.0703125 C1.41851562 8.04710937 0.71984375 8.02390625 0 8 C0 5.36 0 2.72 0 0 Z " fill="#1052B4" transform="translate(159,286)"/>
<path d="M0 0 C4.29 0 8.58 0 13 0 C12.67 1.65 12.34 3.3 12 5 C12.99 5.33 13.98 5.66 15 6 C10.05 6 5.1 6 0 6 C0 4.02 0 2.04 0 0 Z " fill="#0146AF" transform="translate(270,287)"/>
<path d="M0 0 C1.4370809 -0.05422947 2.87475462 -0.09289723 4.3125 -0.125 C5.11300781 -0.14820313 5.91351563 -0.17140625 6.73828125 -0.1953125 C9 0 9 0 12 2 C11.625 4.4375 11.625 4.4375 11 7 C7.92805092 8.53597454 5.39755707 8.2265038 2 8 C-1.4375 6.5 -1.4375 6.5 -4 5 C-0.3791799 3.98617037 3.27811418 3.50102309 7 3 C7 2.34 7 1.68 7 1 C4.69 1 2.38 1 0 1 C0 0.67 0 0.34 0 0 Z " fill="#1658B5" transform="translate(204,286)"/>
<path d="M0 0 C0.66 0 1.32 0 2 0 C3.3421046 6.46650399 3.3421046 6.46650399 1.89331055 8.72583008 C-0.81940371 10.55144654 -2.74008344 10.24809308 -5.98046875 10.07421875 C-7.72553711 9.99204102 -7.72553711 9.99204102 -9.50585938 9.90820312 C-11.32827148 9.79895508 -11.32827148 9.79895508 -13.1875 9.6875 C-14.41404297 9.62626953 -15.64058594 9.56503906 -16.90429688 9.50195312 C-19.93720422 9.34853758 -22.96861342 9.18066191 -26 9 C-26 8.67 -26 8.34 -26 8 C-18.08 8 -10.16 8 -2 8 C-1.67 6.35 -1.34 4.7 -1 3 C-0.67 2.01 -0.34 1.02 0 0 Z " fill="#2C68BD" transform="translate(172,173)"/>
<path d="M0 0 C3 1 3 1 5 4 C5.46531409 9.02539212 4.97760844 11.90578839 2 16 C1.34 15.67 0.68 15.34 0 15 C0.33 14.01 0.66 13.02 1 12 C1 9.6543759 0.52723559 7.33002346 0.21875 5.0078125 C0 3 0 3 0 0 Z " fill="#1354B4" transform="translate(100,226)"/>
<path d="M0 0 C6.625 -0.25 6.625 -0.25 10 2 C9.125 5.875 9.125 5.875 8 7 C6.48071962 7.07179964 4.95832518 7.08392007 3.4375 7.0625 C2.61121094 7.05347656 1.78492188 7.04445313 0.93359375 7.03515625 C0.29550781 7.02355469 -0.34257812 7.01195312 -1 7 C-1 6.67 -1 6.34 -1 6 C0.65 6 2.3 6 4 6 C4 5.34 4 4.68 4 4 C2.68 3.34 1.36 2.68 0 2 C0 1.34 0 0.68 0 0 Z " fill="#1D5AB8" transform="translate(205,274)"/>
<path d="M0 0 C2.1640625 0.0234375 2.1640625 0.0234375 4.625 0.375 C5.85089844 0.54128906 5.85089844 0.54128906 7.1015625 0.7109375 C7.72804688 0.80632812 8.35453125 0.90171875 9 1 C9 1.33 9 1.66 9 2 C7.35 2 5.7 2 4 2 C4 2.66 4 3.32 4 4 C3.34 4 2.68 4 2 4 C2.66 5.98 3.32 7.96 4 10 C2.35 9.67 0.7 9.34 -1 9 C-1.625 5.625 -1.625 5.625 -2 2 C-1.34 1.34 -0.68 0.68 0 0 Z " fill="#1353B6" transform="translate(115,275)"/>
<path d="M0 0 C5.625 -0.25 5.625 -0.25 9 2 C8.34 3.32 7.68 4.64 7 6 C6.34 5.67 5.68 5.34 5 5 C4.01 6.485 4.01 6.485 3 8 C2.34 8 1.68 8 1 8 C0.67 5.36 0.34 2.72 0 0 Z " fill="#044BB0" transform="translate(103,287)"/>
<path d="M0 0 C2.64 0 5.28 0 8 0 C8 5.94 8 11.88 8 18 C4.7 18 1.4 18 -2 18 C-2 17.67 -2 17.34 -2 17 C-0.865625 16.855625 0.26875 16.71125 1.4375 16.5625 C4.80777201 16.38828522 4.80777201 16.38828522 6 15 C6.23427778 12.98405418 6.41336124 10.961526 6.5625 8.9375 C6.64628906 7.83277344 6.73007812 6.72804688 6.81640625 5.58984375 C6.87699219 4.73519531 6.93757813 3.88054687 7 3 C6.01 3 5.02 3 4 3 C4 2.34 4 1.68 4 1 C2.68 0.67 1.36 0.34 0 0 Z " fill="#0143AC" transform="translate(51,275)"/>
<path d="M0 0 C3.10551666 3.10551666 3.81323934 4.89198233 5 9 C2.36 9 -0.28 9 -3 9 C-2.01 6.03 -1.02 3.06 0 0 Z " fill="#1B59B6" transform="translate(335,228)"/>
<path d="M0 0 C2.31 0 4.62 0 7 0 C7 2.64 7 5.28 7 8 C8.98 8 10.96 8 13 8 C13 8.33 13 8.66 13 9 C10.69 9.33 8.38 9.66 6 10 C6 8.35 6 6.7 6 5 C5.34 5 4.68 5 4 5 C3.67 5.99 3.34 6.98 3 8 C3 6.68 3 5.36 3 4 C3.99 4 4.98 4 6 4 C6 3.01 6 2.02 6 1 C4.35 1 2.7 1 1 1 C0.9175 1.61875 0.835 2.2375 0.75 2.875 C0 5 0 5 -2.0625 6.25 C-3.0215625 6.62125 -3.0215625 6.62125 -4 7 C-2.68 4.69 -1.36 2.38 0 0 Z " fill="#1F5CB9" transform="translate(118,291)"/>
<path d="M0 0 C1.67422986 0.29299023 3.34178227 0.62690101 5 1 C5.66 0.67 6.32 0.34 7 0 C6.33333333 1.33333333 5.66666667 2.66666667 5 4 C4.731875 4.721875 4.46375 5.44375 4.1875 6.1875 C3 8 3 8 0.375 8.75 C-0.40875 8.8325 -1.1925 8.915 -2 9 C-1.34 7.68 -0.68 6.36 0 5 C-0.66 4.01 -1.32 3.02 -2 2 C-1.34 1.34 -0.68 0.68 0 0 Z " fill="#0C50B3" transform="translate(201,218)"/>
<path d="M0 0 C0 3.2234174 -0.69715293 5.0877536 -2 8 C-2.33 8.33 -2.66 8.66 -3 9 C-3.23192865 10.51469448 -3.41215238 12.03754562 -3.5625 13.5625 C-3.64628906 14.38878906 -3.73007813 15.21507813 -3.81640625 16.06640625 C-3.87699219 16.70449219 -3.93757813 17.34257813 -4 18 C-4.66 17.67 -5.32 17.34 -6 17 C-6.4540821 10.5293301 -5.65288056 7.37188318 -2 2 C-1.34 1.34 -0.68 0.68 0 0 Z " fill="#255FB8" transform="translate(72,76)"/>
<path d="M0 0 C1.4370809 -0.05422947 2.87475462 -0.09289723 4.3125 -0.125 C5.11300781 -0.14820313 5.91351563 -0.17140625 6.73828125 -0.1953125 C9 0 9 0 12 2 C11.67 3.65 11.34 5.3 11 7 C9.02 7 7.04 7 5 7 C5 6.34 5 5.68 5 5 C5.99 4.67 6.98 4.34 8 4 C7.67 3.34 7.34 2.68 7 2 C4.67843403 1.59270772 2.3431213 1.25561323 0 1 C0 0.67 0 0.34 0 0 Z " fill="#225EBA" transform="translate(204,286)"/>
<path d="M0 0 C1.65 0.33 3.3 0.66 5 1 C3.68 4.96 2.36 8.92 1 13 C0.34 12.67 -0.32 12.34 -1 12 C-0.73958333 10.046875 -0.47916667 8.09375 -0.21875 6.140625 C0.06777357 3.69541605 0.06777357 3.69541605 0 0 Z " fill="#0D4FB4" transform="translate(163,123)"/>
<path d="M0 0 C0.99 0.99 1.98 1.98 3 3 C2.01 4.98 1.02 6.96 0 9 C3.465 8.505 3.465 8.505 7 8 C7 8.66 7 9.32 7 10 C4.36 10 1.72 10 -1 10 C-1 9.01 -1 8.02 -1 7 C-1.99 6.67 -2.98 6.34 -4 6 C-3.67 4.68 -3.34 3.36 -3 2 C-3 2.99 -3 3.98 -3 5 C-1.45833358 3.62514468 -1.45833358 3.62514468 0 2 C0 1.34 0 0.68 0 0 Z " fill="#235FBB" transform="translate(107,290)"/>
<path d="M0 0 C0.33 0 0.66 0 1 0 C1.2954439 5.02254631 0.98514628 7.89542386 -2 12 C-4.97 11.505 -4.97 11.505 -8 11 C-5.63707344 8.47411298 -4.33537489 7.11179163 -1 6 C-0.67 4.02 -0.34 2.04 0 0 Z " fill="#1F5CBA" transform="translate(43,282)"/>
<path d="M0 0 C0 3.19474755 -0.20851401 5.9000132 -1 9 C-2.875 10.4375 -2.875 10.4375 -5 11 C-5.99 10.67 -6.98 10.34 -8 10 C-5.36 6.7 -2.72 3.4 0 0 Z " fill="#EBF1F8" transform="translate(267,223)"/>
<path d="M0 0 C0.99 0.99 1.98 1.98 3 3 C1.35 5.64 -0.3 8.28 -2 11 C-2.66 10.67 -3.32 10.34 -4 10 C-2.68 6.7 -1.36 3.4 0 0 Z " fill="#0F52B7" transform="translate(341,288)"/>
<path d="M0 0 C2.31 0 4.62 0 7 0 C7.33 0.66 7.66 1.32 8 2 C6.68 2 5.36 2 4 2 C4 2.99 4 3.98 4 5 C1.525 4.01 1.525 4.01 -1 3 C-0.67 2.01 -0.34 1.02 0 0 Z " fill="#1656B5" transform="translate(186,224)"/>
<path d="M0 0 C0.99 0.33 1.98 0.66 3 1 C1.60667426 4.36720387 0.0210714 5.9859524 -3 8 C-3 6.35 -3 4.7 -3 3 C-2.01 2.67 -1.02 2.34 0 2 C0 1.34 0 0.68 0 0 Z " fill="#1555B4" transform="translate(56,57)"/>
<path d="M0 0 C2.35953094 2.35953094 2.49141413 3.77895617 3 7 C1.35 7 -0.3 7 -2 7 C-2 3.89448334 -1.4606285 2.64738916 0 0 Z " fill="#1457B6" transform="translate(220,128)"/>
<path d="M0 0 C0.99 0.33 1.98 0.66 3 1 C1.68 3.31 0.36 5.62 -1 8 C-1.66 7.67 -2.32 7.34 -3 7 C-2.25 2.25 -2.25 2.25 0 0 Z " fill="#0C4FB4" transform="translate(260,227)"/>
<path d="M0 0 C0.33 0.99 0.66 1.98 1 3 C0.34 3 -0.32 3 -1 3 C-1.33 3.99 -1.66 4.98 -2 6 C-4.0625 6.6875 -4.0625 6.6875 -6 7 C-4.52307692 2.32307692 -4.52307692 2.32307692 -1.875 0.6875 C-1.25625 0.460625 -0.6375 0.23375 0 0 Z " fill="#1053B6" transform="translate(348,281)"/>
<path d="M0 0 C0.66 0.66 1.32 1.32 2 2 C1.625 4.625 1.625 4.625 1 7 C-0.98 7 -2.96 7 -5 7 C-4.0409375 6.1028125 -4.0409375 6.1028125 -3.0625 5.1875 C-0.79689611 3.09189663 -0.79689611 3.09189663 0 0 Z " fill="#2A66BC" transform="translate(331,287)"/>
<path d="M0 0 C1.5 1.375 1.5 1.375 3 3 C3 3.66 3 4.32 3 5 C-1.75 4.25 -1.75 4.25 -4 2 C-2.68 1.34 -1.36 0.68 0 0 Z " fill="#1152B6" transform="translate(77,100)"/>
<path d="M0 0 C1.125 3.75 1.125 3.75 0 6 C-0.66 6 -1.32 6 -2 6 C-3.625 4 -3.625 4 -5 2 C-3.35 1.34 -1.7 0.68 0 0 Z " fill="#0D50B6" transform="translate(315,297)"/>
<path d="M0 0 C1 4 1 4 1 6 C-0.98 6.33 -2.96 6.66 -5 7 C-3.35 4.69 -1.7 2.38 0 0 Z " fill="#1353B5" transform="translate(267,233)"/>
<path d="M0 0 C0.9075 0.226875 1.815 0.45375 2.75 0.6875 C-0.8941774 3.1169516 -2.96241272 2.84929575 -7.25 2.6875 C-4.61280971 0.1517401 -3.74095095 -0.35970682 0 0 Z " fill="#1556B5" transform="translate(80.25,73.3125)"/>
<path d="M0 0 C2.64 0.33 5.28 0.66 8 1 C8 1.99 8 2.98 8 4 C5.36 3.34 2.72 2.68 0 2 C0 1.34 0 0.68 0 0 Z " fill="#2961BB" transform="translate(304,274)"/>
<path d="M0 0 C0.66 0 1.32 0 2 0 C2 2.31 2 4.62 2 7 C0.68 7 -0.64 7 -2 7 C-1.34 4.69 -0.68 2.38 0 0 Z " fill="#1B58B6" transform="translate(195,113)"/>
</svg>
